<?xml version="1.0" encoding="UTF-8" standalone="no"?>
<!-- Uploaded to: SVG Repo, www.svgrepo.com, Transformed by: SVG Repo Mixer Tools -->

<svg
   width="800px"
   height="800px"
   viewBox="0 0 24 24"
   fill="none"
   version="1.1"
   id="svg2"
   sodipodi:docname="user.svg"
   inkscape:version="1.4 (e7c3feb100, 2024-10-09)"
   xmlns:inkscape="http://www.inkscape.org/namespaces/inkscape"
   xmlns:sodipodi="http://sodipodi.sourceforge.net/DTD/sodipodi-0.dtd"
   xmlns="http://www.w3.org/2000/svg"
   xmlns:svg="http://www.w3.org/2000/svg">
  <defs
     id="defs2" />
  <sodipodi:namedview
     id="namedview2"
     pagecolor="#ffffff"
     bordercolor="#000000"
     borderopacity="0.25"
     inkscape:showpageshadow="2"
     inkscape:pageopacity="0.0"
     inkscape:pagecheckerboard="0"
     inkscape:deskcolor="#d1d1d1"
     inkscape:zoom="0.775"
     inkscape:cx="399.35484"
     inkscape:cy="400"
     inkscape:window-width="1600"
     inkscape:window-height="828"
     inkscape:window-x="0"
     inkscape:window-y="0"
     inkscape:window-maximized="1"
     inkscape:current-layer="svg2" />
  <g
     id="SVGRepo_bgCarrier"
     stroke-width="0" />
  <g
     id="SVGRepo_tracerCarrier"
     stroke-linecap="round"
     stroke-linejoin="round" />
  <g
     id="SVGRepo_iconCarrier">
    <path
       d="M12 10C14.2091 10 16 8.20914 16 6C16 3.79086 14.2091 2 12 2C9.79086 2 8 3.79086 8 6C8 8.20914 9.79086 10 12 10Z"
       fill="#ECE5D3"
       id="path1" />
    <path
       d="M2.72778 5.81803C2.62732 5.41619 2.22012 5.17186 1.81828 5.27233C1.41643 5.37279 1.17211 5.77999 1.27257 6.18184L1.65454 7.7097C2.3593 10.5287 4.49604 12.7495 7.25018 13.5787L7.25018 18.0519C7.25015 18.9504 7.25012 19.6996 7.33009 20.2944C7.41449 20.9222 7.60016 21.489 8.05563 21.9445C8.5111 22.3999 9.0779 22.5856 9.7057 22.67C10.3005 22.75 11.0497 22.75 11.9482 22.7499H12.0522C12.9507 22.75 13.6999 22.75 14.2947 22.67C14.9225 22.5856 15.4892 22.3999 15.9447 21.9445C16.4002 21.489 16.5859 20.9222 16.6703 20.2944C16.7502 19.6996 16.7502 18.9504 16.7502 18.052L16.7502 13.859C17.7313 14.1514 18.4808 15.0039 18.6058 16.067L19.2553 21.5876C19.3037 21.9989 19.6764 22.2932 20.0878 22.2448C20.4992 22.1964 20.7934 21.8237 20.745 21.4123L20.0956 15.8918C19.8512 13.815 18.0912 12.2499 16.0002 12.2499H8.0847C5.64125 11.6764 3.71957 9.78517 3.10975 7.3459L2.72778 5.81803Z"
       fill="#ECE5D3"
       id="path2" />
  </g>
  <path
     style="fill:#000000;stroke-width:1.29032"
     d="M 379.30271,331.03528 C 366.04687,328.97483 353.81549,324.92735 340,318.02968 307.40435,301.75561 283.27287,272.43479 272.06356,235.48387 268.77207,224.63365 268.54071,222.30324 268.54071,200 c 0,-22.30324 0.23136,-24.63365 3.52285,-35.48387 7.35444,-24.24355 18.62871,-42.86473 36.11461,-59.64879 12.36715,-11.870762 18.6342,-16.365037 32.54453,-23.33857 37.48141,-18.790194 80.77413,-18.826983 118.49015,-0.10069 13.9255,6.914119 24.16186,14.507148 35.72307,26.4983 16.36949,16.97826 25.98729,33.471 33.00052,56.58975 3.2915,10.85022 3.52285,13.18063 3.52285,35.48387 0,22.30324 -0.23135,24.63365 -3.52285,35.48387 -4.31621,14.22817 -10.4797,27.53914 -17.73954,38.31108 -7.06531,10.48335 -22.8882,26.87702 -32.80309,33.98642 -28.0232,20.09384 -63.82238,28.58055 -98.0911,23.25391 z"
     id="path3"
     transform="scale(0.03)" />
  <path
     style="fill:#000000;stroke-width:1.29032"
     d="m 331.80105,755.97111 c -38.83354,-3.73723 -63.72394,-18.32519 -76.786,-45.00337 -11.63208,-23.75753 -13.05208,-41.99424 -13.06803,-167.82888 l -0.0115,-91.05468 -7.41935,-2.33623 C 215.60935,443.79449 187.39631,429.97517 169.03226,417.67263 148.15014,403.68319 119.24387,376.78546 104.97298,358.06452 86.928769,334.39363 71.902783,306.53834 62.862627,280 c -2.780106,-8.16129 -8.705612,-29.64516 -13.167793,-47.74194 -7.459632,-30.2532 -7.992157,-33.34017 -6.611944,-38.32842 4.029009,-14.56134 19.638798,-22.1352 33.057209,-16.03934 10.807089,4.90955 12.169265,7.78807 21.804829,46.07746 4.808562,19.10806 10.740142,39.92791 13.181292,46.26634 24.43471,63.44458 73.67058,110.57461 139.19636,133.24283 l 14.19355,4.91017 145.16129,0.66574 145.16129,0.66575 12.41146,3.41056 c 34.38537,9.4488 65.47444,32.52428 82.93321,61.55615 7.3063,12.1495 14.49423,30.42024 17.06594,43.37922 3.04796,15.35889 23.9678,197.1233 23.28913,202.35033 -0.8827,6.79856 -6.3183,14.50929 -12.42397,17.62418 -5.92522,3.02282 -15.01889,3.39505 -21.07931,0.86285 -5.57054,-2.32752 -12.11962,-9.99209 -13.65576,-15.98171 -0.68493,-2.67061 -5.95858,-45.50082 -11.71923,-95.17823 -5.76064,-49.67742 -11.38297,-94.67742 -12.49404,-100 -4.00026,-19.16305 -15.19788,-37.84844 -29.86721,-49.83917 -6.99853,-5.72059 -25.96374,-15.96729 -29.55325,-15.96729 -1.36443,0 -1.68333,16.22696 -1.6927,86.12904 -0.0161,120.51154 -1.52566,139.32893 -13.06803,162.90322 -4.08441,8.34209 -7.56341,13.13427 -14.5323,20.01763 -15.28007,15.09254 -33.53435,22.18002 -64.6462,25.09979 -16.68793,1.56613 -117.43762,1.48038 -134.0054,-0.11405 z"
     id="path4"
     transform="scale(0.03)" />
</svg>
